<?xml version="1.0" encoding="UTF-8"?><svg id="b" xmlns="http://www.w3.org/2000/svg" xmlns:xlink="http://www.w3.org/1999/xlink" viewBox="0 0 330 263"><defs><style>.e{fill:none;}.f{fill:#fff;}.g{clip-path:url(#d);}</style><clipPath id="d"><rect class="e" width="330" height="263"/></clipPath></defs><g id="c"><g class="g"><path class="f" d="M293.912,47.178c-15.261,0-35.423,25.342-52.224,46.624-6.721,8.397-12.741,15.678-18.058,21.559-4.2,4.62-24.502,29.542-32.623,29.542-3.64,0-4.62-2.8-4.62-6.721,0-6.301,16.941-25.622,28.982-38.223,11.621-12.178,20.438-27.859,20.438-41.58,0-6.721-4.477-11.621-14.138-11.621-24.502,0-49.144,26.602-49.144,42.143,0,6.577,4.2,11.898,13.021,11.898,12.321,0,28.842-15.538,28.842-28.979,0-4.34-1.96-7.281-6.721-7.281-11.481,0-17.081,12.041-17.081,12.041l1.26.56s5.46-10.641,15.821-10.641c3.36,0,4.76,2.1,4.76,5.32,0,12.601-15.401,27.019-26.882,27.019-7.421,0-11.061-4.48-11.061-9.938,0-14.701,24.362-40.183,47.184-40.183,8.261,0,12.178,4.06,12.178,9.661,0,10.361-14.978,22.962-26.319,34.863-8.147,8.515-15.929,18.074-20.263,28.149l-.117-.189c-3.197,1.768-7.486,1.973-12.113,1.973h-4.015c-6.33,0-12.66.407-16.811,4.695l.068.407c2.996-1.361,6.193-1.7,9.459-1.7,1.635,0,3.266.137,4.9.205.749,1.019,1.088,1.973,1.088,2.924,0,5.311-10.208,9.664-16.534,9.664-5.991,0-9.189-1.631-9.189-5.649,0-9.322,10.208-13.676,17.625-14.493,1.771.681,3.881,1.019,6.33,1.019,1.293,0,2.178-.612,2.178-1.224,0-.544-.681-1.019-2.383-1.019-.951,0-3.266.134-6.056.475-1.088-.817-1.498-2.042-1.566-3.539,7.828-.339,25.658-2.11,25.658-9.459,0-2.722-3.881-4.152-8.778-4.152-6.467,0-20.214,3.471-20.214,11.364,0,.547,0,1.022.137,1.498-4.152,0-7.417-.544-9.732-1.566-2.719-1.156-4.422-3.468-4.422-6.125,0-3.308,2.175-5.688,4.91-6.88,1.312-.573,2.751-.876,4.142-.876,1.635,0,3.018.13,4.164.319,3.1.508,4.477,1.449,4.477,1.449l.475-.475s-1.482-1.12-4.79-1.729c-.703-.13-1.491-.234-2.364-.3-.651-.052-1.351-.081-2.1-.081-.645,0-1.309.046-1.976.143-1.371.065-2.784.179-4.298.348,8.821-15.398,25.059-40.18,46.34-51.101l-.98-1.68c-5.6,2.38-10.361,3.92-14.561,3.92-8.121,0-15.258-3.22-22.819-3.22-23.942,0-40.743,19.182-40.743,38.503,0,8.261,4.9,14.418,14.141,14.418,10.781,0,21.982-12.878,21.982-24.359,0-2.38-.42-4.76-1.54-6.861l-.84.98c.84,1.96,1.12,4.06,1.12,6.16,0,11.061-10.221,21.982-19.602,21.982-9.241,0-13.301-5.18-13.301-12.321,0-14.701,19.602-36.543,38.783-36.543,8.117,0,15.258,3.22,22.819,3.22,1.54,0,3.22,0,4.9-.42-14.281,10.221-33.599,33.183-43.54,48.301-28.002,4.48-65.665,20.862-65.665,45.924,0,7.841,6.02,16.381,17.361,16.381,27.061,0,40.431-33.228,51.609-54.862.469,2.872,3.012,5.102,5.773,6.33,2.52,1.088,5.991,1.836,10.481,1.836.544,1.566,1.635,2.79,3.197,3.676-8.436,1.224-20.754,4.829-20.754,14.291,0,4.559,6.327,7.486,12.862,7.486,8.166,0,20.416-6.125,20.484-13.477h.951c4.744,0,9.247-.781,12.936-4.516-1.947,4.819-3.087,9.749-3.087,14.734,0,9.521,6.16,9.521,6.16,9.521,10.921,0,30.663-24.922,35.143-29.962,4.48-5.18,10.918-13.021,18.058-21.839,15.821-19.882,35.283-44.944,50.544-44.944,2.24,0,4.48.56,6.581,1.82l.7-.98c-1.96-1.96-4.34-3.64-7.001-3.64ZM177.142,102.147c4.63,0,6.535,1.224,6.535,3.197,0,6.398-14.903,8.44-23.548,8.778.342-7.007,10.892-11.976,17.013-11.976ZM136.177,101.639c-6.161,9.941-11.341,16.241-19.602,27.442-8.821,12.041-18.482,25.482-33.043,25.482-5.04,0-9.661-3.78-9.661-9.241,0-23.662,35.563-39.203,62.585-44.104-.14.14-.28.28-.28.42ZM122.449,180.055c0,2.187.682,2.869,2.613,2.869v.171h-7.698v-.171c1.931,0,2.783-.682,2.783-2.869v-13.691c-.909.512-2.187.966-3.38,1.108v-.171c3.01-1.08,4.402-2.812,5.51-5.17h.171v17.924ZM129.435,169.886c5.169.653,8.01,3.295,8.01,7.044,0,3.977-3.068,6.505-7.101,6.505-1.619,0-3.522-.398-4.375-.881l.341-3.465h.171c.653,2.358,1.704,3.949,4.119,3.949,2.699,0,5.028-1.932,5.028-4.914,0-3.408-3.039-5.397-7.13-5.908l-1.647-.199,1.051-9.942c2.386.511,4.346.625,5.539.625,2.131,0,3.182-.369,3.721-.795h.171c-.824,2.244-2.074,3.011-4.63,3.011-1.165,0-2.756-.171-4.545-.54l-.539,5.312,1.818.199ZM138.695,181.816c0-.909.738-1.647,1.647-1.647.88,0,1.619.738,1.619,1.647,0,.88-.739,1.619-1.619,1.619-.909,0-1.647-.739-1.647-1.619ZM151.732,171.76c2.414,1.023,4.886,2.784,4.886,5.908,0,3.352-2.756,5.767-6.704,5.767-3.38,0-6.306-1.79-6.306-5.17,0-2.642,1.761-4.204,4.658-5.425-2.045-1.108-3.693-2.812-3.693-5.425,0-3.153,2.358-5.34,5.71-5.34,3.068,0,5.454,1.846,5.454,4.687,0,2.5-1.932,3.949-4.119,4.943l.114.057ZM154.8,178.634c0-2.897-2.386-4.005-4.176-4.744l-1.449-.625c-.227-.085-.454-.199-.653-.312-2.272,1.42-3.068,3.124-3.068,5.198,0,3.238,1.988,4.886,4.658,4.886,2.812,0,4.687-1.846,4.687-4.403ZM150.284,171.135l1.051.454c1.761-1.335,2.557-2.812,2.557-4.801,0-2.499-1.25-4.317-3.721-4.317-2.557,0-3.778,1.875-3.778,4.005,0,3.011,2.386,4.005,3.892,4.658ZM158.065,181.816c0-.909.738-1.647,1.647-1.647.88,0,1.619.738,1.619,1.647,0,.88-.739,1.619-1.619,1.619-.909,0-1.647-.739-1.647-1.619ZM175.647,178.663l-1.25,4.431h-12.043v-.114l3.209-3.55c2.983-3.295,6.363-7.471,6.363-11.163,0-2.756-1.704-4.63-4.147-4.63-2.329,0-4.119,1.818-4.743,4.914h-.171c.227-4.147,2.897-6.476,6.079-6.476,3.153,0,5.425,2.187,5.425,5.227,0,4.374-4.857,8.919-9.686,13.663l-.085.086h6.135c2.812,0,3.835-.454,4.744-2.386h.17ZM176.782,172.811c0-6.363,2.812-10.737,7.442-10.737,4.658,0,7.414,4.147,7.414,10.624,0,6.363-2.84,10.737-7.471,10.737s-7.386-4.147-7.386-10.624ZM189.139,172.755c0-5.738-1.562-10.283-4.971-10.283-3.38,0-4.886,4.375-4.886,10.283,0,5.738,1.534,10.283,4.971,10.283,3.352,0,4.886-4.375,4.886-10.283ZM205.924,178.663l-1.25,4.431h-12.043v-.114l3.209-3.55c2.983-3.295,6.363-7.471,6.363-11.163,0-2.756-1.705-4.63-4.147-4.63-2.329,0-4.119,1.818-4.743,4.914h-.171c.227-4.147,2.897-6.476,6.079-6.476,3.153,0,5.425,2.187,5.425,5.227,0,4.374-4.857,8.919-9.686,13.663l-.085.086h6.135c2.812,0,3.835-.454,4.744-2.386h.17ZM220.012,176.589c0,3.891-2.727,6.846-6.42,6.846-3.409,0-6.249-2.528-6.249-8.095,0-6.136,3.465-11.106,9.146-13.265l.057.171c-4.232,1.903-6.335,6.05-6.675,11.248.738-1.306,2.329-2.925,4.743-2.925,2.954,0,5.397,2.358,5.397,6.022ZM217.541,177.47c0-3.664-1.761-5.539-4.091-5.539-1.647,0-2.84.966-3.579,1.931-.029.341-.029.71-.029,1.051,0,5.312,1.733,8.124,4.119,8.124,2.216,0,3.579-2.358,3.579-5.568ZM132.445,197.157h2.567v.093c-.747.093-1.136,1.027-1.805,2.91l-2.988,8.481h-.125l-3.361-9.492c-.452-1.308-.747-1.837-1.416-1.898v-.093h3.563v.093c-.871.062-1.151.529-.809,1.524l2.63,7.625,2.21-6.334c.653-1.836.669-2.723-.467-2.816v-.093ZM135.075,208.486v-.093c.638,0,.685-.529.685-1.525v-4.513c0-.996-.265-1.323-.794-1.463v-.093l1.992-.622h.062v6.691c0,.996.046,1.525.685,1.525v.093h-2.63ZM135.34,197.982c0-.483.389-.872.887-.872.483,0,.871.389.871.872s-.389.871-.871.871c-.498,0-.887-.389-.887-.871ZM138.265,208.486v-.093c.638,0,.685-.529.685-1.525v-8.497c0-.996-.265-1.323-.794-1.463v-.093l1.992-.498h.062v10.551c0,.996.046,1.525.685,1.525v.093h-2.63ZM141.455,208.486v-.093c.638,0,.685-.529.685-1.525v-8.497c0-.996-.265-1.323-.794-1.463v-.093l1.992-.498h.062v10.551c0,.996.046,1.525.685,1.525v.093h-2.63ZM151.274,207.63c-.249.467-.763,1.043-1.463,1.043-.778,0-.949-.763-.98-1.323-.638.794-1.572,1.323-2.459,1.323-1.058,0-1.805-.67-1.805-1.634,0-1.12.856-1.883,2.739-2.428l1.478-.42v-1.198c0-.452,0-2.148-1.572-2.148-1.043,0-1.805.731-2.288,1.665l-.093-.046c.249-.856,1.152-2.319,2.957-2.319,1.51,0,2.241,1.042,2.241,2.505v4.108c0,.638.031,1.167.513,1.167.327,0,.544-.233.638-.358l.093.062ZM148.785,207.194v-2.77l-1.105.357c-1.432.467-1.852.949-1.852,1.852,0,.825.529,1.339,1.26,1.339.623,0,1.276-.405,1.696-.778ZM154.45,208.486v-.093c1.058,0,1.121-.7,1.121-1.852v-7.438c0-1.151-.062-1.851-1.121-1.851v-.093h3.61v.093c-1.058,0-1.121.7-1.121,1.851v7.438c0,1.152.062,1.852,1.121,1.852v.093h-3.61ZM163.196,200.331h2.148v.093c-.529.093-.856.654-1.525,2.428l-2.163,5.789h-.125l-2.428-6.458c-.452-1.198-.7-1.665-1.229-1.758v-.093h2.847v.093c-.7.062-.716.56-.436,1.338l1.821,4.949,1.447-3.953c.623-1.68.373-2.256-.358-2.334v-.093ZM171.632,207.63c-.249.467-.763,1.043-1.463,1.043-.778,0-.949-.763-.98-1.323-.638.794-1.572,1.323-2.459,1.323-1.058,0-1.805-.67-1.805-1.634,0-1.12.856-1.883,2.739-2.428l1.478-.42v-1.198c0-.452,0-2.148-1.572-2.148-1.043,0-1.805.731-2.288,1.665l-.093-.046c.249-.856,1.152-2.319,2.957-2.319,1.51,0,2.241,1.042,2.241,2.505v4.108c0,.638.031,1.167.513,1.167.327,0,.544-.233.638-.358l.093.062ZM169.142,207.194v-2.77l-1.105.357c-1.432.467-1.852.949-1.852,1.852,0,.825.529,1.339,1.26,1.339.623,0,1.276-.405,1.696-.778ZM178.635,206.867c0,.996.047,1.525.685,1.525v.093h-2.63v-.093c.638,0,.684-.529.684-1.525v-3.953c0-1.182-.373-1.93-1.463-1.93-.684,0-1.432.342-2.101.871v5.011c0,.996.046,1.525.685,1.525v.093h-2.63v-.093c.638,0,.685-.529.685-1.525v-4.513c0-.996-.265-1.323-.794-1.463v-.093l1.992-.622h.062v1.525c.825-.856,1.805-1.556,2.848-1.556,1.213,0,1.976.856,1.976,2.428v4.295ZM190.478,197.157l.187,2.334h-.093c-.794-1.774-1.308-2.085-2.988-2.085h-2.023v5.369h1.743c1.401,0,1.712-.373,1.977-1.525h.093v3.408h-.093c-.265-1.105-.576-1.634-1.977-1.634h-1.743v3.517c0,1.152.062,1.852,1.121,1.852v.093h-3.61v-.093c1.058,0,1.121-.7,1.121-1.852v-7.438c0-1.151-.062-1.851-1.121-1.851v-.093h7.407ZM197.139,207.63c-.249.467-.763,1.043-1.463,1.043-.778,0-.949-.763-.98-1.323-.638.794-1.572,1.323-2.459,1.323-1.058,0-1.805-.67-1.805-1.634,0-1.12.856-1.883,2.739-2.428l1.478-.42v-1.198c0-.452,0-2.148-1.572-2.148-1.043,0-1.805.731-2.288,1.665l-.093-.046c.249-.856,1.152-2.319,2.957-2.319,1.51,0,2.241,1.042,2.241,2.505v4.108c0,.638.031,1.167.513,1.167.327,0,.545-.233.638-.358l.093.062ZM194.649,207.194v-2.77l-1.105.357c-1.432.467-1.852.949-1.852,1.852,0,.825.529,1.339,1.26,1.339.623,0,1.276-.405,1.696-.778ZM197.342,208.486v-.093c.638,0,.685-.529.685-1.525v-8.497c0-.996-.265-1.323-.794-1.463v-.093l1.992-.498h.062v10.551c0,.996.046,1.525.685,1.525v.093h-2.63ZM200.563,208.486v-.093c.638,0,.685-.529.685-1.525v-4.513c0-.996-.265-1.323-.794-1.463v-.093l1.992-.622h.062v6.691c0,.996.046,1.525.685,1.525v.093h-2.63ZM200.827,197.982c0-.483.389-.872.887-.872.483,0,.871.389.871.872s-.389.871-.871.871c-.498,0-.887-.389-.887-.871ZM210.553,206.867c0,.996.047,1.525.685,1.525v.093h-2.63v-.093c.638,0,.684-.529.684-1.525v-3.953c0-1.182-.373-1.93-1.463-1.93-.684,0-1.432.342-2.101.871v5.011c0,.996.046,1.525.685,1.525v.093h-2.63v-.093c.638,0,.685-.529.685-1.525v-4.513c0-.996-.265-1.323-.794-1.463v-.093l1.992-.622h.062v1.525c.825-.856,1.805-1.556,2.848-1.556,1.213,0,1.976.856,1.976,2.428v4.295ZM122.196,215.833h2.567v.093c-.747.093-1.136,1.027-1.805,2.91l-2.988,8.481h-.125l-3.361-9.492c-.452-1.308-.747-1.837-1.416-1.898v-.093h3.563v.093c-.871.062-1.151.529-.809,1.524l2.63,7.625,2.21-6.334c.653-1.836.669-2.723-.467-2.816v-.093ZM130.942,225.247c0,.996.249,1.37.794,1.525v.093l-1.727.483h-.062l-.265-1.556c-.824.856-1.805,1.556-2.847,1.556-1.214,0-1.977-.856-1.977-2.428v-4.342c0-.996-.296-1.276-.825-1.416v-.093l2.023-.218h.062v5.726c0,1.183.373,1.93,1.463,1.93.685,0,1.432-.342,2.101-.855v-5.073c0-.996-.296-1.276-.824-1.416v-.093l2.022-.218h.062v6.395ZM132.312,223.115c0-2.583,1.619-4.295,3.797-4.295,2.194,0,3.75,1.618,3.75,4.232,0,2.583-1.619,4.295-3.781,4.295-2.21,0-3.766-1.619-3.766-4.233ZM138.49,223.084c0-2.256-.84-4.046-2.412-4.046s-2.396,1.696-2.396,4.046c0,2.256.855,4.046,2.428,4.046s2.38-1.696,2.38-4.046ZM140.685,226.85l-.125-1.93h.093c.576,1.385,1.292,2.209,2.49,2.209.918,0,1.774-.482,1.774-1.54,0-.934-.654-1.276-1.852-1.93l-.591-.312c-.824-.451-1.696-.98-1.696-2.256,0-1.416,1.089-2.272,2.568-2.272.623,0,1.478.14,2.069.467v1.587h-.093c-.389-1.152-1.182-1.837-2.132-1.837-.918,0-1.54.576-1.54,1.416,0,.887.684,1.323,1.447,1.712l.576.311c1.12.591,2.116,1.074,2.116,2.459,0,1.463-1.167,2.412-2.847,2.412-.81,0-1.697-.202-2.256-.498ZM152.979,226.305c-.249.467-.763,1.043-1.463,1.043-.778,0-.949-.763-.98-1.323-.638.794-1.572,1.323-2.459,1.323-1.058,0-1.805-.67-1.805-1.634,0-1.12.856-1.883,2.739-2.428l1.478-.42v-1.198c0-.452,0-2.148-1.572-2.148-1.043,0-1.805.731-2.288,1.665l-.093-.046c.249-.856,1.152-2.319,2.957-2.319,1.51,0,2.241,1.042,2.241,2.505v4.108c0,.638.031,1.167.513,1.167.327,0,.545-.233.638-.358l.093.062ZM150.489,225.87v-2.77l-1.105.357c-1.432.467-1.852.949-1.852,1.852,0,.825.529,1.339,1.26,1.339.623,0,1.276-.405,1.696-.778ZM159.811,226.305c-.249.467-.763,1.043-1.463,1.043-.778,0-.949-.763-.98-1.323-.638.794-1.572,1.323-2.459,1.323-1.058,0-1.805-.67-1.805-1.634,0-1.12.856-1.883,2.739-2.428l1.478-.42v-1.198c0-.452,0-2.148-1.572-2.148-1.043,0-1.805.731-2.288,1.665l-.093-.046c.249-.856,1.152-2.319,2.957-2.319,1.51,0,2.241,1.042,2.241,2.505v4.108c0,.638.031,1.167.513,1.167.327,0,.545-.233.638-.358l.093.062ZM157.321,225.87v-2.77l-1.105.357c-1.432.467-1.852.949-1.852,1.852,0,.825.529,1.339,1.26,1.339.623,0,1.276-.405,1.696-.778ZM164.714,218.945l-.311,1.338h-.093c-.343-.233-.747-.373-1.074-.373-.42,0-.824.233-1.245.824v4.809c0,.996.046,1.525.685,1.525v.093h-2.63v-.093c.638,0,.685-.529.685-1.525v-4.513c0-.996-.265-1.323-.794-1.463v-.093l1.992-.622h.062v1.665c.638-.981,1.323-1.696,2.116-1.696.186,0,.389.031.607.125ZM165.072,227.161v-.093c.638,0,.685-.529.685-1.525v-4.513c0-.996-.265-1.323-.794-1.463v-.093l1.992-.622h.062v6.691c0,.996.046,1.525.685,1.525v.093h-2.63ZM165.336,216.658c0-.483.389-.872.887-.872.483,0,.871.389.871.872s-.389.871-.871.871c-.498,0-.887-.389-.887-.871ZM168.527,229.293c.623-.249,1.416-.949,1.416-1.649,0-.498-.467-.545-.825-.591-.576-.078-.778-.483-.778-.81,0-.451.342-.809.856-.809.638,0,1.276.544,1.276,1.54,0,1.323-1.027,2.148-1.914,2.412l-.031-.093ZM183.887,215.926c-1.058,0-1.121.7-1.121,1.851v7.438c0,1.152.062,1.852,1.121,1.852v.093h-3.61v-.093c1.058,0,1.121-.7,1.121-1.852v-3.781h-4.777v3.781c0,1.152.062,1.852,1.121,1.852v.093h-3.61v-.093c1.058,0,1.121-.7,1.121-1.852v-7.438c0-1.151-.062-1.851-1.121-1.851v-.093h3.61v.093c-1.058,0-1.121.7-1.121,1.851v3.377h4.777v-3.377c0-1.151-.062-1.851-1.121-1.851v-.093h3.61v.093ZM190.735,225.309c-.544.934-1.494,2.039-3.143,2.039-2.07,0-3.331-1.821-3.331-4.14,0-2.567,1.665-4.388,3.673-4.388,1.634,0,2.879,1.151,2.786,3.112h-5.088c-.031.233-.047.467-.047.7,0,2.209.871,3.953,2.614,3.953,1.074,0,1.945-.623,2.443-1.339l.093.062ZM185.662,221.684h3.719c.125-1.603-.342-2.646-1.524-2.646-1.199,0-1.961,1.198-2.195,2.646ZM191.265,227.161v-.093c.638,0,.685-.529.685-1.525v-8.497c0-.996-.265-1.323-.794-1.463v-.093l1.992-.498h.062v10.551c0,.996.046,1.525.685,1.525v.093h-2.63ZM194.626,226.85l-.125-1.93h.093c.576,1.385,1.292,2.209,2.49,2.209.918,0,1.774-.482,1.774-1.54,0-.934-.654-1.276-1.852-1.93l-.591-.312c-.824-.451-1.696-.98-1.696-2.256,0-1.416,1.089-2.272,2.568-2.272.623,0,1.478.14,2.069.467v1.587h-.093c-.389-1.152-1.182-1.837-2.132-1.837-.918,0-1.54.576-1.54,1.416,0,.887.684,1.323,1.447,1.712l.576.311c1.12.591,2.116,1.074,2.116,2.459,0,1.463-1.167,2.412-2.847,2.412-.81,0-1.697-.202-2.256-.498ZM200.322,227.161v-.093c.638,0,.685-.529.685-1.525v-4.513c0-.996-.265-1.323-.794-1.463v-.093l1.992-.622h.062v6.691c0,.996.046,1.525.685,1.525v.093h-2.63ZM200.587,216.658c0-.483.389-.872.887-.872.483,0,.871.389.871.872s-.389.871-.871.871c-.498,0-.887-.389-.887-.871ZM210.313,225.543c0,.996.047,1.525.685,1.525v.093h-2.63v-.093c.638,0,.684-.529.684-1.525v-3.953c0-1.182-.373-1.93-1.463-1.93-.684,0-1.432.342-2.101.871v5.011c0,.996.046,1.525.685,1.525v.093h-2.63v-.093c.638,0,.685-.529.685-1.525v-4.513c0-.996-.265-1.323-.794-1.463v-.093l1.992-.622h.062v1.525c.825-.856,1.805-1.556,2.848-1.556,1.213,0,1.976.856,1.976,2.428v4.295ZM213.441,225.543c0,.996.046,1.525.685,1.525v.093h-2.63v-.093c.638,0,.685-.529.685-1.525v-8.497c0-.996-.265-1.323-.794-1.463v-.093l1.992-.498h.062v10.551ZM214.951,222.088c2.039,3.252,3.159,4.855,3.75,4.98v.093c-.467.062-.809.062-1.074.062-1.027,0-1.556-.84-3.734-4.419l1.572-1.603c.654-.653,1.042-1.12,1.042-1.54,0-.358-.311-.529-.638-.56v-.093h2.646v.093c-.498.093-1.541.965-2.863,2.272l-.701.716ZM218.795,227.161v-.093c.638,0,.685-.529.685-1.525v-4.513c0-.996-.265-1.323-.794-1.463v-.093l1.992-.622h.062v6.691c0,.996.046,1.525.685,1.525v.093h-2.63ZM219.059,216.658c0-.483.389-.872.887-.872.483,0,.871.389.871.872s-.389.871-.871.871c-.498,0-.887-.389-.887-.871ZM220.013,190.939h-103.105v-.193h103.105v.193Z"/></g></g></svg>