<?xml version="1.0" encoding="UTF-8"?><svg id="b" xmlns="http://www.w3.org/2000/svg" viewBox="0 0 229 116.066"><defs><style>.d{fill:#fff;}</style></defs><g id="c"><path class="d" d="M221.999,1.54c-15.261,0-35.423,25.342-52.224,46.624-6.721,8.397-12.741,15.678-18.058,21.559-4.2,4.62-24.502,29.542-32.623,29.542-3.64,0-4.62-2.8-4.62-6.721,0-6.301,16.941-25.622,28.982-38.223,11.621-12.178,20.438-27.859,20.438-41.58,0-6.721-4.477-11.621-14.138-11.621-24.502,0-49.144,26.602-49.144,42.143,0,6.577,4.2,11.898,13.021,11.898,12.321,0,28.842-15.538,28.842-28.979,0-4.34-1.96-7.281-6.721-7.281-11.481,0-17.081,12.041-17.081,12.041l1.26.56s5.46-10.641,15.821-10.641c3.36,0,4.76,2.1,4.76,5.32,0,12.601-15.401,27.019-26.882,27.019-7.421,0-11.061-4.48-11.061-9.938,0-14.701,24.362-40.183,47.184-40.183,8.261,0,12.178,4.06,12.178,9.661,0,10.361-14.978,22.962-26.319,34.863-8.147,8.515-15.929,18.074-20.263,28.149l-.117-.189c-3.197,1.768-7.486,1.973-12.113,1.973h-4.015c-6.33,0-12.66.407-16.811,4.695l.068.407c2.996-1.361,6.193-1.7,9.459-1.7,1.635,0,3.266.137,4.9.205.749,1.019,1.088,1.973,1.088,2.924,0,5.311-10.208,9.664-16.534,9.664-5.991,0-9.189-1.631-9.189-5.649,0-9.322,10.208-13.676,17.625-14.493,1.771.681,3.881,1.019,6.33,1.019,1.293,0,2.178-.612,2.178-1.224,0-.544-.681-1.019-2.383-1.019-.951,0-3.266.134-6.056.475-1.088-.817-1.498-2.042-1.566-3.539,7.828-.339,25.658-2.11,25.658-9.459,0-2.722-3.881-4.152-8.778-4.152-6.467,0-20.214,3.471-20.214,11.364,0,.547,0,1.022.137,1.498-4.152,0-7.417-.544-9.732-1.566-2.719-1.156-4.422-3.468-4.422-6.125,0-3.308,2.175-5.688,4.91-6.88,1.312-.573,2.751-.876,4.142-.876,1.635,0,3.018.13,4.164.319,3.1.508,4.477,1.449,4.477,1.449l.475-.475s-1.482-1.12-4.79-1.729c-.703-.13-1.491-.234-2.364-.3-.651-.052-1.351-.081-2.1-.081-.645,0-1.309.046-1.976.143-1.371.065-2.784.179-4.298.348,8.821-15.398,25.059-40.18,46.34-51.101l-.98-1.68c-5.6,2.38-10.361,3.92-14.561,3.92-8.121,0-15.258-3.22-22.819-3.22-23.942,0-40.743,19.182-40.743,38.503,0,8.261,4.9,14.418,14.141,14.418,10.781,0,21.982-12.878,21.982-24.359,0-2.38-.42-4.76-1.54-6.861l-.84.98c.84,1.96,1.12,4.06,1.12,6.16,0,11.061-10.221,21.982-19.602,21.982-9.241,0-13.301-5.18-13.301-12.321,0-14.701,19.602-36.543,38.783-36.543,8.117,0,15.258,3.22,22.819,3.22,1.54,0,3.22,0,4.9-.42-14.281,10.221-33.599,33.183-43.54,48.301C37.663,58.241,0,74.623,0,99.685c0,7.841,6.02,16.381,17.361,16.381,27.061,0,40.431-33.228,51.609-54.862.469,2.872,3.012,5.102,5.773,6.33,2.52,1.088,5.991,1.836,10.481,1.836.544,1.566,1.635,2.79,3.197,3.676-8.436,1.224-20.754,4.829-20.754,14.291,0,4.559,6.327,7.486,12.862,7.486,8.166,0,20.416-6.125,20.484-13.477h.951c4.744,0,9.247-.781,12.936-4.516-1.947,4.819-3.087,9.749-3.087,14.734,0,9.521,6.16,9.521,6.16,9.521,10.921,0,30.663-24.922,35.143-29.962,4.48-5.18,10.918-13.021,18.058-21.839,15.821-19.882,35.283-44.944,50.544-44.944,2.24,0,4.48.56,6.581,1.82l.7-.98c-1.96-1.96-4.34-3.64-7.001-3.64ZM105.23,56.509c4.63,0,6.535,1.224,6.535,3.197,0,6.398-14.903,8.44-23.548,8.778.342-7.007,10.892-11.976,17.013-11.976ZM64.265,56.001c-6.161,9.941-11.341,16.241-19.602,27.442-8.821,12.041-18.482,25.482-33.043,25.482-5.04,0-9.661-3.78-9.661-9.241,0-23.662,35.563-39.203,62.585-44.104-.14.14-.28.28-.28.42Z"/></g></svg>