<?xml version="1.0" encoding="UTF-8"?><svg id="b" xmlns="http://www.w3.org/2000/svg" xmlns:xlink="http://www.w3.org/1999/xlink" viewBox="0 0 809.543 410.308"><defs><style>.e{fill:url(#d);}</style><linearGradient id="d" x1="327.617" y1="-21.659" x2="460.546" y2="343.558" gradientUnits="userSpaceOnUse"><stop offset="0" stop-color="#0d0e45"/><stop offset=".26" stop-color="#0f1047"/><stop offset=".446" stop-color="#151951"/><stop offset=".61" stop-color="#212760"/><stop offset=".76" stop-color="#313b77"/><stop offset=".9" stop-color="#455593"/><stop offset="1" stop-color="#586dad"/></linearGradient></defs><g id="c"><path class="e" d="M784.795,5.445c-53.95,0-125.224,89.587-184.619,164.821-23.758,29.686-45.041,55.424-63.838,76.212-14.849,16.334-86.618,104.436-115.325,104.436-12.869,0-16.334-9.899-16.334-23.758,0-22.273,59.89-90.577,102.456-135.123,41.081-43.05,72.252-98.485,72.252-146.991,0-23.758-15.827-41.081-49.979-41.081-86.618,0-173.73,94.042-173.73,148.982,0,23.251,14.849,42.06,46.031,42.06,43.556,0,101.961-54.929,101.961-102.445,0-15.344-6.929-25.738-23.758-25.738-40.587,0-60.385,42.566-60.385,42.566l4.455,1.98s19.303-37.617,55.93-37.617c11.879,0,16.828,7.424,16.828,18.808,0,44.546-54.445,95.515-95.032,95.515-26.233,0-39.102-15.839-39.102-35.13,0-51.97,86.123-142.053,166.801-142.053,29.202,0,43.05,14.354,43.05,34.152,0,36.627-52.949,81.173-93.041,123.244-28.799,30.1-56.31,63.896-71.631,99.509l-.414-.668c-11.304,6.25-26.463,6.975-42.82,6.975h-14.193c-22.377,0-44.753,1.439-59.429,16.598l.242,1.439c10.59-4.811,21.893-6.009,33.438-6.009,5.778,0,11.545.483,17.324.725,2.648,3.603,3.845,6.975,3.845,10.337,0,18.774-36.086,34.164-58.451,34.164-21.18,0-32.483-5.767-32.483-19.971,0-32.955,36.086-48.345,62.307-51.234,6.262,2.406,13.721,3.603,22.377,3.603,4.57,0,7.701-2.164,7.701-4.328,0-1.922-2.406-3.603-8.426-3.603-3.361,0-11.545.472-21.41,1.681-3.845-2.889-5.295-7.217-5.537-12.512,27.671-1.197,90.704-7.459,90.704-33.438,0-9.623-13.721-14.676-31.033-14.676-22.86,0-71.458,12.27-71.458,40.172,0,1.934,0,3.614.483,5.295-14.676,0-26.221-1.922-34.405-5.537-9.611-4.086-15.631-12.259-15.631-21.651,0-11.695,7.689-20.109,17.358-24.322,4.639-2.026,9.727-3.096,14.642-3.096,5.778,0,10.67.46,14.722,1.128,10.958,1.796,15.827,5.122,15.827,5.122l1.681-1.681s-5.237-3.96-16.932-6.112c-2.486-.46-5.272-.829-8.357-1.059-2.302-.184-4.777-.288-7.424-.288-2.279,0-4.627.161-6.987.506-4.846.23-9.842.633-15.194,1.232,31.182-54.434,88.586-142.041,163.819-180.648l-3.465-5.94c-19.798,8.414-36.627,13.859-51.476,13.859-28.707,0-53.939-11.384-80.667-11.384-84.638,0-144.032,67.809-144.032,136.113,0,29.202,17.324,50.969,49.991,50.969,38.112,0,77.708-45.525,77.708-86.111,0-8.414-1.485-16.829-5.445-24.253l-2.97,3.465c2.97,6.929,3.96,14.354,3.96,21.778,0,39.102-36.132,77.708-69.294,77.708-32.667,0-47.021-18.313-47.021-43.556,0-51.971,69.294-129.184,137.103-129.184,28.696,0,53.939,11.384,80.667,11.384,5.445,0,11.384,0,17.324-1.485-50.486,36.132-118.778,117.305-153.92,170.749C133.144,205.891,0,263.801,0,352.398c0,27.718,21.283,57.91,61.375,57.91,95.665,0,142.928-117.466,182.444-193.943,1.657,10.152,10.647,18.037,20.408,22.377,8.909,3.845,21.18,6.492,37.053,6.492,1.922,5.537,5.778,9.865,11.303,12.996-29.824,4.328-73.369,17.07-73.369,50.52,0,16.115,22.365,26.463,45.467,26.463,28.869,0,72.172-21.651,72.413-47.643h3.361c16.771,0,32.69-2.763,45.732-15.965-6.883,17.036-10.912,34.463-10.912,52.086,0,33.657,21.778,33.657,21.778,33.657,38.607,0,108.396-88.102,124.234-105.921,15.839-18.313,38.595-46.031,63.838-77.202,55.93-70.284,124.729-158.881,178.68-158.881,7.919,0,15.839,1.98,23.263,6.434l2.475-3.465c-6.929-6.929-15.343-12.869-24.748-12.869ZM372.001,199.767c16.368,0,23.102,4.328,23.102,11.303,0,22.618-52.684,29.836-83.245,31.033,1.209-24.771,38.503-42.336,60.143-42.336ZM227.185,197.971c-21.778,35.142-40.092,57.415-69.294,97.012-31.182,42.566-65.334,90.082-116.81,90.082-17.819,0-34.152-13.364-34.152-32.667,0-83.648,125.719-138.588,221.246-155.912-.495.495-.99.99-.99,1.485Z"/></g></svg>